# xmcd
#
# Track frame offsets:
# 150
# 18838
# 31175
# 45664
# 60325
# 83123
# 106911
# 120111
# 143695
# 158475
# 180994
# 194977
# 212500
# 223853
#
# Disc length: 3205 seconds
#
#
# Revision: 0
# Processed by: cddbd v1.5.2PL0 Copyright (c) Steve Scherf et al.
# Submitted via: FreeRIP 2.70 
#
DISCID=ad0c830e
DTITLE=Lightnin' Moe - Rock 'n' Roll Baby
DYEAR=2006
DGENRE=Blues
TTITLE0=You Never Can Tell
TTITLE1=Rock 'n' Roll Baby
TTITLE2=Forgetting You
TTITLE3=Take A Chance
TTITLE4=When I Get Old
TTITLE5=Show You My Love
TTITLE6=You Never Wear My Ring
TTITLE7=Let The Conscience Be Your Guide
TTITLE8=Need Your Loving Tonight
TTITLE9=Talk Is Cheap
TTITLE10=This Is My Way
TTITLE11=Crying Over You
TTITLE12=Astatic Bullet
TTITLE13=Can't Stand
EXTD=
EXTT0=
EXTT1=
EXTT2=
EXTT3=
EXTT4=
EXTT5=
EXTT6=
EXTT7=
EXTT8=
EXTT9=
EXTT10=
EXTT11=
EXTT12=
EXTT13=
PLAYORDER=
